<svg width="24" height="24" viewBox="0 0 24 24" fill="none" xmlns="http://www.w3.org/2000/svg">
<path d="M18 4.75H6C4.20507 4.75 2.75 6.20507 2.75 8V18C2.75 19.7949 4.20507 21.25 6 21.25H18C19.7949 21.25 21.25 19.7949 21.25 18V8C21.25 6.20507 19.7949 4.75 18 4.75Z" stroke="white" stroke-width="1.5"/>
<path d="M6.75 2.75V6.25" stroke="white" stroke-width="1.5" stroke-linecap="round"/>
<path d="M2 16.25H22" stroke="white" stroke-width="1.5"/>
<path d="M17.75 2.75V6.25" stroke="white" stroke-width="1.5" stroke-linecap="round"/>
<path d="M9.99975 13.5C9.72629 13.5 9.49951 13.2518 9.49951 12.9525V10.4776L9.37278 10.6309C9.18602 10.8572 8.87254 10.8718 8.66577 10.6747C8.459 10.4703 8.44566 10.1271 8.62575 9.90082L9.62624 8.68163C9.76631 8.51372 9.98641 8.4553 10.1798 8.53561C10.3733 8.61592 10.5 8.82034 10.5 9.04666V12.9525C10.5 13.2591 10.2799 13.5 9.99975 13.5Z" fill="white"/>
<path d="M13.5 13.5C12.3945 13.5 11.5 12.6022 11.5 11.4927V10.5073C11.5 9.39781 12.3945 8.5 13.5 8.5C14.6055 8.5 15.5 9.39781 15.5 10.5073V11.4927C15.5 12.6022 14.6055 13.5 13.5 13.5ZM13.5 9.6022C12.9982 9.6022 12.5909 10.011 12.5909 10.5146V11.5C12.5909 12.0037 12.9982 12.4124 13.5 12.4124C14.0018 12.4124 14.4091 12.0037 14.4091 11.5V10.5146C14.4091 10.011 14.0018 9.6022 13.5 9.6022Z" fill="white"/>
</svg>
